<svg id="Layer_1" data-name="Layer 1" xmlns="http://www.w3.org/2000/svg" viewBox="0 0 59.94 14.99"><path id="path48" d="M26.33,33a.67.67,0,0,1-.66-.66V30a3,3,0,0,1,3-3,.66.66,0,1,1,0,1.31A1.72,1.72,0,0,0,27,30v2.37a.67.67,0,0,1-.66.66" transform="translate(0 -22.49)" style="fill:#3f3f3f"/><g id="g4575"><path id="path40" d="M24.86,29.77v.37a1.09,1.09,0,0,0,0-.18A1.15,1.15,0,0,0,24.86,29.77Z" transform="translate(0 -22.49)" style="fill:#3f3f3f"/><path d="M24.86,30.14V27.58a.66.66,0,0,0-.66-.65.65.65,0,0,0-.64.53,3.07,3.07,0,0,0-1.72-.53,3,3,0,1,0,1.71,5.53v.33a1.72,1.72,0,0,1-1.71,1.72H20.63a.66.66,0,0,0,0,1.32h1.21a3,3,0,0,0,3-3Zm-1.31,0a1.72,1.72,0,1,1,0-.31v.31Z" transform="translate(0 -22.49)" style="fill:#3f3f3f"/><path d="M23.55,30v0Z" transform="translate(0 -22.49)" style="fill:#3f3f3f"/></g><path d="M34.92,26.93a.65.65,0,0,0-.65.59,3,3,0,1,0,0,4.88.65.65,0,0,0,.65.59.67.67,0,0,0,.66-.66V27.58A.66.66,0,0,0,34.92,26.93Zm-2.44,4.74A1.72,1.72,0,1,1,34.19,30,1.72,1.72,0,0,1,32.48,31.67Z" transform="translate(0 -22.49)" style="fill:#3f3f3f"/><path id="path60" d="M41.56,26.94h0a2.11,2.11,0,0,0-1.51.63,2.15,2.15,0,0,0-1.52-.63h0a2.15,2.15,0,0,0-2.15,2.15v3.23a.65.65,0,0,0,1.3,0V29.11a.86.86,0,1,1,1.71,0v3.24A.65.65,0,0,0,40,33h0a.65.65,0,0,0,.64-.65V29.08a.86.86,0,0,1,.86-.86h0a.86.86,0,0,1,.86.86v3.24a.65.65,0,1,0,1.29,0V29.09a2.15,2.15,0,0,0-2.15-2.15" transform="translate(0 -22.49)" style="fill:#3f3f3f"/><path id="path64" d="M49.68,26.94h0a2.13,2.13,0,0,0-1.52.63,2.12,2.12,0,0,0-1.51-.63h0a2.15,2.15,0,0,0-2.15,2.15v3.23a.65.65,0,1,0,1.29,0V29.11a.88.88,0,0,1,.8-.89.86.86,0,0,1,.91.86v3.24a.65.65,0,0,0,.65.65h0a.65.65,0,0,0,.65-.65V29.08a.85.85,0,0,1,.86-.86h0a.85.85,0,0,1,.85.86v3.24a.65.65,0,0,0,.65.65.64.64,0,0,0,.64-.65V29.09a2.15,2.15,0,0,0-2.14-2.15" transform="translate(0 -22.49)" style="fill:#3f3f3f"/><path id="path68" d="M57.79,26.94h0a2.11,2.11,0,0,0-1.51.63,2.15,2.15,0,0,0-1.52-.63h0a2.15,2.15,0,0,0-2.15,2.15v3.23a.65.65,0,0,0,1.3,0V29.11a.86.86,0,1,1,1.71,0v3.24a.65.65,0,0,0,.64.65h0a.65.65,0,0,0,.64-.65V29.08a.86.86,0,0,1,.86-.86h0a.86.86,0,0,1,.86.86v3.24a.65.65,0,0,0,.64.65h0a.65.65,0,0,0,.65-.65V29.09a2.15,2.15,0,0,0-2.15-2.15" transform="translate(0 -22.49)" style="fill:#3f3f3f"/><path id="path92" d="M17,23.31l-4.75,2.14,1.83,3L17,23.41Z" transform="translate(0 -22.49)" style="fill:#3f3f3f"/><path id="path72" d="M4.62,26l.32-3.51H.14Z" transform="translate(0 -22.49)" style="fill:#3f3f3f"/><path id="path76" d="M4.72,30.27l2.79.32-2.2-2.48Z" transform="translate(0 -22.49)" style="fill:#2dcaff"/><path id="path80" d="M4.45,27.23,0,23.72l3.67,6.36Z" transform="translate(0 -22.49)" style="fill:#2dcaff"/><path id="path84" d="M5.66,26.31l5.23-1.47-.51-2.35H6Z" transform="translate(0 -22.49)" style="fill:#2dcaff"/><path id="path88" d="M10.66,26,6,27.31l3,3.32Z" transform="translate(0 -22.49)" style="fill:#2dcaff"/><path id="path96" d="M11.89,24.46l4.37-2H11.47Z" transform="translate(0 -22.49)" style="fill:#2dcaff"/><path id="path100" d="M10.17,30.47l3.13-.62.19-.32-1.86-3.09Z" transform="translate(0 -22.49)" style="fill:#2dcaff"/><path id="path104" d="M8.28,31.75,4.37,31.3l3.57,6.17Z" transform="translate(0 -22.49)" style="fill:#3f3f3f"/><path id="path108" d="M9.32,32.07,9,37.28l2-3.41Z" transform="translate(0 -22.49)" style="fill:#2dcaff"/><path id="path112" d="M10.27,31.53l1.27,1.37,1.06-1.83Z" transform="translate(0 -22.49)" style="fill:#2dcaff"/></svg>